<svg xmlns="http://www.w3.org/2000/svg" viewBox="0 0 512 512">
  <!-- Admin console logo: lucide ShieldCheck on the primary purple (#69279b,
       hsl(274 60% 38%)), rounded like the in-app header icon. -->
  <rect width="512" height="512" rx="128" fill="#69279b"/>
  <g transform="translate(64 64) scale(16)">
    <path d="M20 13c0 5-3.5 7.5-7.66 8.95a1 1 0 0 1-.67-.01C7.5 20.5 4 18 4 13V6a1 1 0 0 1 1-1c2 0 4.5-1.2 6.24-2.72a1.17 1.17 0 0 1 1.52 0C14.51 3.81 17 5 19 5a1 1 0 0 1 1 1z" fill="#fff"/>
    <path d="m9 12 2 2 4-4" fill="none" stroke="#69279b" stroke-width="2" stroke-linecap="round" stroke-linejoin="round"/>
  </g>
</svg>
