<svg width="66" height="66" viewBox="0 0 66 66" fill="none" xmlns="http://www.w3.org/2000/svg">
<path d="M33 65.8125C51.1218 65.8125 65.8125 51.1218 65.8125 33C65.8125 14.8782 51.1218 0.1875 33 0.1875C14.8782 0.1875 0.1875 14.8782 0.1875 33C0.1875 51.1218 14.8782 65.8125 33 65.8125Z" fill="#ED4C5C"/>
<path d="M22.0625 29.0625L30.8125 35.1875L27.5312 25.125L36.2812 18.7812H25.4531L22.0625 8.9375L18.7812 18.7812H7.84375L16.5938 25.125L13.3125 35.1875L22.0625 29.0625ZM36.6094 36.6094L34.0938 37.1562L36.5 38.1406V40.6562L38.1406 38.7969L40.5469 39.6719L39.125 37.5938L40.6562 35.625L38.1406 36.1719L36.6094 34.0938V36.6094ZM40.3281 29.1719L38.4688 30.8125L40.9844 30.5938L42.0781 33L42.5156 30.4844L45.0312 30.2656L42.8438 28.9531L43.3906 26.4375L41.5312 28.0781L39.3438 26.7656L40.3281 29.1719ZM40.9844 20.6406L41.75 23.1562L42.5156 20.75H45.0312L43.0625 19.2188L43.8281 16.7031L41.75 18.2344L39.7812 16.5938L40.5469 19.1094L38.4688 20.5312L40.9844 20.6406ZM36.6094 11.8906V14.4062L38.1406 12.3281L40.6562 12.875L39.125 10.9063L40.5469 8.82812L38.1406 9.8125L36.5 7.84375V10.3594L34.0938 11.3437L36.6094 11.8906Z" fill="#FFE62E"/>
</svg>
