<svg width="66" height="66" viewBox="0 0 66 66" fill="none" xmlns="http://www.w3.org/2000/svg">
<path d="M0.078125 33C0.078125 47.3281 9.26562 59.4688 21.9531 63.9531V2.04688C9.26562 6.53125 0.078125 18.6719 0.078125 33Z" fill="#428BC1"/>
<path d="M65.7031 33C65.7031 18.6719 56.625 6.53125 43.8281 2.04688V63.9531C56.625 59.4688 65.7031 47.3281 65.7031 33Z" fill="#ED4C5C"/>
<path d="M21.9531 63.9531C25.3438 65.1562 29.0625 65.8125 32.8906 65.8125C36.7188 65.8125 40.4375 65.1562 43.8281 63.9531V2.04688C40.4375 0.84375 36.8281 0.1875 32.8906 0.1875C28.9531 0.1875 25.3438 0.84375 21.9531 2.04688V63.9531Z" fill="white"/>
</svg>
