<svg width="66" height="66" viewBox="0 0 66 66" fill="none" xmlns="http://www.w3.org/2000/svg">
<path d="M0.1875 33C0.1875 39.4531 2.04687 45.4688 5.21875 50.5H60.6719C63.8438 45.4688 65.7031 39.4531 65.7031 33C65.7031 26.5469 63.8438 20.5312 60.6719 15.5H5.21875C2.04687 20.5312 0.1875 26.5469 0.1875 33Z" fill="#FFCE31"/>
<path d="M60.7812 15.5C54.9844 6.3125 44.7031 0.1875 33 0.1875C21.2969 0.1875 11.0156 6.3125 5.21875 15.5H60.7812ZM5.21875 50.5C11.0156 59.6875 21.2969 65.8125 33 65.8125C44.7031 65.8125 54.9844 59.6875 60.7812 50.5H5.21875Z" fill="#ED4C5C"/>
<path d="M8.0625 29.3906H11.5625V31.3594H8.0625V29.3906ZM8.0625 43.8281H11.6719V45.6875H8.0625V43.8281Z" fill="#C8B100"/>
<path d="M7.73438 40.7656C7.40625 40.9844 7.1875 41.2031 7.1875 41.3125C7.1875 41.4219 7.29688 41.5313 7.51563 41.6406C7.73438 41.75 7.95313 41.9688 7.84375 42.1875C8.0625 41.9688 8.17188 41.75 8.17188 41.5313C8.17188 41.2031 7.95312 40.875 7.73438 40.7656Z" fill="#ED4C5C"/>
<path d="M8.60938 31.3594H11.125V43.8281H8.60938V31.3594Z" fill="white"/>
<path d="M13.75 35.9531C13.2031 35.7344 12.2188 35.5156 11.125 35.5156C10.7969 35.5156 10.3594 35.5156 9.9219 35.625C8.39065 35.8438 7.18753 36.5 7.2969 36.9375L6.75003 35.7344C6.64065 35.1875 7.95315 34.5312 9.59378 34.2031C10.1407 34.0937 10.6875 34.0938 11.125 34.0938C12.2188 34.0938 13.2031 34.2031 13.75 34.4219V35.9531Z" fill="#ED4C5C"/>
<path d="M8.60937 37.5938C7.95312 37.5938 7.40625 37.375 7.40625 37.0469C7.40625 36.8281 7.625 36.5 8.0625 36.2812H8.71875L8.60937 37.5938ZM11.125 36.6094C11.5625 36.7187 11.8906 36.8281 12.1094 36.9375C12.2187 37.0469 11.7812 37.4844 11.125 37.8125V36.6094Z" fill="#ED4C5C"/>
<path d="M6.96879 40C6.85942 39.7813 7.62504 39.3438 8.60942 39.0156C9.04692 38.9063 9.37504 38.6875 9.92192 38.4688C11.2344 37.9219 12.3282 37.1562 12.1094 36.9375L12.3282 38.25C12.4375 38.4688 11.5625 39.125 10.25 39.7813C9.81254 40 9.04692 40.3281 8.60942 40.4375C7.84379 40.6563 7.18754 41.0938 7.18754 41.2031L6.96879 40Z" fill="#ED4C5C"/>
<path d="M31.5781 29.3906H35.0781V31.3594H31.5781V29.3906ZM31.4688 43.8281H35.0781V45.6875H31.4688V43.8281Z" fill="#C8B100"/>
<path d="M35.4063 40.7656C35.7344 40.9844 35.9531 41.2031 35.9531 41.3125C35.9531 41.4219 35.8438 41.5313 35.625 41.6406C35.4063 41.8594 35.1875 42.1875 35.2969 42.2969C35.0781 42.0781 34.9688 41.8594 34.9688 41.6406C34.9688 41.2031 35.1875 40.875 35.4063 40.7656Z" fill="#ED4C5C"/>
<path d="M32.0156 31.3594H34.5313V43.8281H32.0156V31.3594Z" fill="white"/>
<path d="M29.3906 35.9531C29.9375 35.7344 30.9219 35.5156 32.0156 35.5156C32.3437 35.5156 32.7812 35.5156 33.2187 35.625C34.75 35.8438 35.9531 36.5 35.8437 36.9375L36.3906 35.625C36.5 35.0781 35.1875 34.4219 33.5469 34.0938H32.0156C30.9219 34.0938 29.9375 34.2031 29.3906 34.4219V35.9531Z" fill="#ED4C5C"/>
<path d="M34.5313 37.5938C35.1875 37.5938 35.7344 37.375 35.7344 37.0469C35.7344 36.8281 35.5157 36.5 35.0782 36.2812H34.4219L34.5313 37.5938ZM32.0157 36.6094C31.5782 36.7187 31.25 36.8281 31.0313 36.9375C30.9219 37.0469 31.3594 37.4844 32.0157 37.8125V36.6094Z" fill="#ED4C5C"/>
<path d="M36.1719 40C36.2813 39.7813 35.5156 39.3438 34.5313 39.0156C34.0938 38.9062 33.7656 38.6875 33.2188 38.4688C31.9063 37.9219 30.8125 37.1562 31.0312 36.9375L30.8125 38.25C30.7031 38.4688 31.5781 39.125 32.8906 39.7813C33.3281 40 34.0938 40.3281 34.5313 40.4375C35.2969 40.6562 35.9531 41.2031 35.8438 41.3125L36.1719 40ZM21.5156 22.3906C23.5938 22.3906 27.8594 22.8281 29.3906 24.3594C27.75 28.2969 25.125 26.6563 21.5156 26.6563C18.0156 26.6563 15.2812 28.2969 13.6406 24.3594C15.1719 22.8281 19.3281 22.3906 21.5156 22.3906Z" fill="#ED4C5C"/>
<path d="M26.875 26.7656C25.5625 26 23.5938 25.8906 21.5156 25.8906C19.4375 25.8906 17.4688 26.1094 16.1563 26.7656L16.5938 28.625C17.7969 28.9531 19.5469 29.1719 21.5156 29.1719C23.4844 29.1719 25.125 28.9531 26.4375 28.625L26.875 26.7656ZM28.7344 22.0625C28.2969 21.7344 27.4219 21.4062 26.6563 21.4062C26.3281 21.4062 26 21.4062 25.6719 21.5156C25.6719 21.5156 25.0156 20.6406 23.4844 20.6406C22.9375 20.6406 22.5 20.75 22.0625 20.9688V20.8594C21.9531 20.6406 21.7344 20.4219 21.5156 20.4219C21.2969 20.4219 20.9688 20.75 20.9688 20.9688V21.0781C20.5313 20.8594 20.0938 20.75 19.5469 20.75C18.0156 20.75 17.3594 21.7344 17.3594 21.625C17.0313 21.5156 16.7031 21.5156 16.375 21.5156C11.3437 21.5156 13.8594 24.9063 13.8594 24.9063L14.4063 24.25C13.2031 22.7188 14.2969 21.8437 16.4844 21.8437C16.8125 21.8437 17.0313 21.8437 17.25 21.9531C16.4844 23.0469 17.9063 24.0312 17.9063 24.0312L18.2344 23.4844C17.4688 22.9375 17.3594 21.0781 19.5469 21.0781C20.0938 21.0781 20.5313 21.1875 20.9688 21.5156C20.9688 21.625 20.8594 23.1563 20.75 23.375L21.625 24.1406L22.5 23.375C22.3906 23.0469 22.2813 21.625 22.2813 21.5156C22.6094 21.2969 23.1563 21.0781 23.7031 21.0781C26 21.0781 26 22.9375 25.0156 23.4844L25.3438 24.0312C25.3438 24.0312 26.5469 23.0469 26 21.9531C26.2188 21.9531 26.5469 21.8437 26.7656 21.8437C29.3906 21.8437 29.5 23.8125 28.8438 24.25L29.2813 24.9063C29.0625 24.9063 30.2656 23.375 28.7344 22.0625Z" fill="#C8B100"/>
<path d="M20.8594 19.9844C20.8594 19.6563 21.1875 19.3281 21.5156 19.3281C21.9531 19.3281 22.1719 19.6563 22.1719 19.9844C22.1719 20.3125 21.8438 20.6406 21.5156 20.6406C21.1875 20.6406 20.8594 20.3125 20.8594 19.9844Z" fill="#005BBF"/>
<path d="M21.2969 18.125V18.4531H20.9688V18.7813H21.2969V19.875H20.8594V20.2031H22.1719L22.2813 19.9844L22.1719 19.875H21.7344V18.7813H22.0625V18.4531H21.7344V18.125H21.2969Z" fill="#C8B100"/>
<path d="M21.5156 28.9531C19.7656 28.9531 18.2344 28.7344 17.0312 28.4062C18.2344 28.0781 19.7656 27.8594 21.5156 27.8594C23.2656 27.8594 24.7969 28.0781 26 28.4062C24.9063 28.7344 23.2656 28.9531 21.5156 28.9531Z" fill="#ED4C5C"/>
<path d="M21.625 47.875C19.5469 47.875 17.5781 47.3281 15.8281 46.5625C14.5156 45.9063 13.75 44.7031 13.75 43.2813V38.0312H29.5V43.2813C29.5 44.7031 28.625 46.0156 27.4219 46.5625C25.6719 47.4375 23.7031 47.875 21.625 47.875ZM21.5156 29.2812H29.3906V38.0312H21.5156V29.2812Z" fill="white"/>
<path d="M21.625 43.2813C21.625 45.3594 19.875 47 17.6875 47C15.5 47 13.75 45.3594 13.75 43.2813V38.0312H21.625V43.2813Z" fill="#ED4C5C"/>
<path d="M15.3906 46.3437C15.6094 46.4531 15.9375 46.6719 16.375 46.7812V37.8125H15.5L15.3906 46.3437ZM13.6406 43.1719C13.6406 44.2656 14.0781 45.1406 14.5156 45.5781V37.8125H13.6406V43.1719Z" fill="#C8B100"/>
<path d="M17.1406 47H18.0156V37.8125H17.1406V47Z" fill="#C7B500"/>
<path d="M18.8906 46.7812C19.2188 46.6719 19.6562 46.4531 19.875 46.3437V37.8125H19L18.8906 46.7812Z" fill="#C8B100"/>
<path d="M13.6406 29.2812H21.5156V38.0312H13.6406V29.2812Z" fill="#ED4C5C"/>
<path d="M20.75 45.5781C21.1875 45.25 21.5156 44.4844 21.625 43.6094V37.9219H20.75V45.5781Z" fill="#C8B100"/>
<path d="M29.5 38.0312V43.2812C29.5 45.3594 27.75 47 25.5625 47C23.375 47 21.625 45.3594 21.625 43.2812V38.0312H29.5ZM26.6563 30.8125C26.9844 31.4687 26.9844 33.1093 26 32.7812C26.2188 32.8906 26.3281 33.6562 26.6563 34.0937C27.2031 34.75 27.8594 34.2031 27.75 33.4375C27.5313 32.2344 27.6406 31.4687 27.8594 30.2656C27.8594 30.375 28.4063 30.375 28.625 30.1562C28.5156 30.4843 28.4063 30.9218 28.625 30.9218C28.4063 31.25 27.8594 31.7968 27.75 32.125C27.6406 32.8906 28.8438 34.3125 27.5313 34.6406C26.6563 34.8593 27.2031 35.5156 27.5313 35.8437C27.5313 35.8437 27.0937 37.2656 27.3125 37.1562C26.4375 37.4843 26.6563 36.7187 26.6563 36.7187C27.0938 35.4062 25.8906 35.2969 26 35.0781C24.9063 34.9687 26.1094 36.0625 25.125 36.0625C24.9062 36.0625 24.4688 36.2812 24.4688 36.2812C23.2656 36.1718 23.9219 35.0781 24.3594 35.1875C24.6875 35.2968 25.0156 35.8437 25.0156 35.0781C25.0156 35.0781 24.4688 34.2031 25.8906 34.2031C25.3438 34.2031 25.0156 33.7656 24.7969 33.2187C24.5781 33.3281 24.25 33.875 23.0469 33.9844C23.0469 33.9844 22.7188 32.7812 23.0469 33C23.4844 33.2187 23.7031 33.2187 24.1406 32.7812C23.9219 32.4531 22.6094 32.0156 22.8281 31.25C22.8281 31.0312 23.4844 30.7031 23.4844 30.7031C23.375 31.25 23.7031 31.7968 24.3594 31.7968C25.2344 31.9062 24.9063 31.5781 25.0156 31.3593C25.125 31.1406 25.7813 31.4687 25.5625 30.9218C25.5625 30.8125 24.7969 30.7031 25.0156 30.375C25.4531 29.8281 26.1094 30.2656 26.6563 30.8125ZM21.625 46.7812L21.4062 46.2343L21.625 45.5781L21.8437 46.2343L21.625 46.7812Z" fill="#ED4C5C"/>
<path d="M16.0469 31.1406V31.6875H16.2656V32.125H15.7188V33.2188H16.0469V35.625H15.3906V36.8281H19.875V35.625H19.3281V33.2188H19.5469V32.125H19V31.6875H19.3281V31.1406H18.2344V31.6875H18.4531V32.125H17.9063V30.8125H18.2344V30.2656H17.0312V30.8125H17.3594V32.125H16.8125V31.6875H17.0312V31.1406H16.0469ZM28.4062 44.5937V39.125H22.7188V44.5937L25.3438 45.7969H25.6719L28.4062 44.5937ZM25.3438 39.5625V41.4219L23.4844 39.5625H25.3438ZM23.0469 39.6719L25.2344 41.8594L23.0469 44.0469V39.6719ZM23.2656 44.4844L25.3438 42.4062V45.4688L23.2656 44.4844ZM25.6719 45.3594V42.2969L27.75 44.375L25.6719 45.3594ZM27.9688 44.0469L25.7812 41.8594L27.9688 39.6719V44.0469ZM25.6719 39.5625H27.5312L25.6719 41.4219V39.5625Z" fill="#C8B100"/>
<path d="M19 37.9219C19 36.2812 20.0937 35.0781 21.5156 35.0781C22.9375 35.0781 24.0312 36.3906 24.0312 37.9219C24.0312 39.4531 22.9375 40.7656 21.5156 40.7656C20.0937 40.7656 19 39.5625 19 37.9219Z" fill="#ED4C5C"/>
<path d="M19.7656 37.9219C19.7656 36.7188 20.5313 35.8438 21.5156 35.8438C22.5 35.8438 23.2656 36.8281 23.2656 37.9219C23.2656 39.125 22.5 40 21.5156 40C20.6406 40.1094 19.7656 39.125 19.7656 37.9219Z" fill="#005BBF"/>
<path d="M20.75 36.5L20.3125 37.7031L20.6406 37.8125L20.4219 38.25H21.0781L20.8594 37.8125L21.1875 37.7031L20.75 36.5ZM22.3906 36.5L21.9531 37.7031L22.2813 37.8125L22.0625 38.25H22.7188L22.6094 37.8125L22.9375 37.7031L22.3906 36.5ZM21.625 37.9219L21.0781 39.125L21.4063 39.2344L21.2969 39.6719H21.8437L21.7344 39.2344L22.0625 39.125L21.625 37.9219Z" fill="#C8B100"/>
</svg>
