<svg width="66" height="66" viewBox="0 0 66 66" fill="none" xmlns="http://www.w3.org/2000/svg">
<path d="M33 65.8125C51.1218 65.8125 65.8125 51.1218 65.8125 33C65.8125 14.8782 51.1218 0.1875 33 0.1875C14.8782 0.1875 0.1875 14.8782 0.1875 33C0.1875 51.1218 14.8782 65.8125 33 65.8125Z" fill="#F5F5F5"/>
<path d="M23.5937 34.8594C26.6562 36.9375 30.9219 36.0625 33 33C35.0781 29.9375 39.2344 29.0625 42.4062 31.1407C45.3594 33.1094 46.2344 36.9375 44.5937 39.8907C48.2031 33.7657 46.5625 25.7813 40.4375 21.7344C34.2031 17.5782 25.7812 19.2188 21.625 25.4532C21.5156 25.6719 21.4062 25.8907 21.2969 26C19.7656 29.1719 20.75 32.8907 23.5937 34.8594Z" fill="#ED4C5C"/>
<path d="M42.4063 31.1406C39.3438 29.0625 35.0781 29.9375 33 33C30.9219 36.0625 26.7656 36.9375 23.5938 34.8594C20.6406 32.8906 19.7656 29.0625 21.4063 26.1094C17.6875 32.2344 19.4375 40.2187 25.5625 44.2656C31.7969 48.4219 40.2188 46.7812 44.375 40.5469C44.4844 40.3281 44.5938 40.1094 44.7031 40C46.2344 36.8281 45.25 33.1094 42.4063 31.1406Z" fill="#428BC1"/>
<path d="M6.53125 23.4844L14.0781 12.2187L13.3125 11.6719L12.5469 11.2344L5 22.5L5.76562 22.9375L6.53125 23.4844ZM8.60938 24.9062L9.375 25.3438L16.8125 14.0781L16.1563 13.6406L15.3906 13.0937L7.84375 24.3594L8.60938 24.9062ZM18.125 14.9531L10.6875 26.2187L11.4531 26.7656L12.2188 27.2031L19.6563 15.9375L18.8906 15.5L18.125 14.9531ZM51.0469 44.4844L51.8125 45.0312L55.3125 39.7812L54.5469 39.2344L53.7813 38.7969L50.2813 44.0469L51.0469 44.4844ZM59.4688 42.5156L55.9688 47.7656L56.7344 48.3125L57.5 48.75L61 43.5L60.2344 43.0625L59.4688 42.5156ZM54.6563 46.8906L58.1563 41.6406L57.3906 41.0938L56.625 40.6562L53.125 45.9062L53.8906 46.3438L54.6563 46.8906ZM50.6094 45.25L49.8438 44.8125L46.3438 50.0625L47.1094 50.5L47.875 51.0469L51.375 45.7969L50.6094 45.25ZM53.3438 47.1094L52.6875 46.6719L49.1875 51.9219L49.8438 52.3594L50.6094 52.9062L54.1094 47.6563L53.3438 47.1094ZM55.4219 48.5312L51.9219 53.7812L52.6875 54.3281L53.4531 54.7656L56.9531 49.5156L56.1875 48.9688L55.4219 48.5312ZM5.76562 43.0625L5 43.5L12.5469 54.7656L13.3125 54.3281L14.0781 53.7812L6.53125 42.5156L5.76562 43.0625ZM12.6563 47.1094L11.8906 47.6563L15.3906 52.9062L16.1563 52.3594L16.8125 51.9219L13.3125 46.6719L12.6563 47.1094ZM11.4531 39.2344L10.6875 39.7812L18.125 51.0469L18.8906 50.5L19.6563 50.0625L12.2188 38.7969L11.4531 39.2344ZM7.84375 41.6406L11.3438 46.8906L12.1094 46.3438L12.875 45.9062L9.375 40.6562L8.60938 41.0938L7.84375 41.6406ZM56.1875 17.0312L56.9531 16.4844L53.4531 11.2344L52.6875 11.6719L51.9219 12.2187L55.4219 17.4687L56.1875 17.0312ZM50.6094 20.75L51.375 20.2031L47.875 14.9531L47.1094 15.5L46.3438 15.9375L49.8438 21.1875L50.6094 20.75ZM55.9688 18.2344L59.4688 23.4844L60.2344 22.9375L61 22.5L57.5 17.25L56.7344 17.6875L55.9688 18.2344ZM57.3906 24.9062L58.1563 24.3594L50.6094 13.0937L49.8438 13.6406L49.1875 14.0781L56.625 25.3438L57.3906 24.9062ZM54.5469 26.7656L55.3125 26.2187L51.8125 20.9688L51.0469 21.5156L50.2813 21.9531L53.7813 27.2031L54.5469 26.7656Z" fill="#3E4347"/>
</svg>
