<svg width="66" height="66" viewBox="0 0 66 66" fill="none" xmlns="http://www.w3.org/2000/svg">
<path d="M22.0625 63.9531V48.8594L10.7969 57.1719C13.9688 60.125 17.7969 62.4219 22.0625 63.9531ZM43.9375 63.9531C48.2031 62.4219 52.0312 60.125 55.2031 57.1719L43.9375 48.75V63.9531ZM2.04688 43.9375C2.375 45.0312 2.8125 46.0156 3.35938 47.1094L7.625 43.9375H2.04688ZM58.375 43.9375L62.6406 47.1094C63.0781 46.125 63.5156 45.0312 63.9531 43.9375H58.375Z" fill="#2A5F9E"/>
<path d="M23.7031 39.5625H0.84375C1.17188 41.0937 1.60938 42.5156 2.04688 43.9375H7.625L3.35938 47.1094C4.23438 48.9688 5.21875 50.6094 6.42188 52.25L17.6875 43.9375H22.0625V46.125L9.26562 55.5312L10.7969 57.0625L22.0625 48.8594V63.9531C23.4844 64.5 24.9062 64.8281 26.4375 65.1562V39.5625H23.7031ZM65.1562 39.5625H39.5625V65.1562C41.0938 64.8281 42.5156 64.3906 43.9375 63.9531V48.8594L55.2031 57.0625C56.7344 55.6406 58.0469 54.1094 59.3594 52.4687L47.6563 43.9375H55.0938L61.7656 48.8594C62.0938 48.3125 62.4219 47.6563 62.6406 47.1094L58.375 43.9375H63.9531C64.3906 42.5156 64.8281 41.0937 65.1562 39.5625Z" fill="white"/>
<path d="M6.42188 52.25C7.29688 53.4531 8.17188 54.5469 9.15625 55.6406L22.0625 46.2344V44.0469H17.6875L6.42188 52.25ZM47.7656 43.9375L59.4688 52.4687C59.9062 51.9219 60.2344 51.375 60.6719 50.8281C60.7812 50.7187 60.7812 50.6094 60.8906 50.6094C61.2188 50.0625 61.6562 49.4062 61.9844 48.8594L55.0938 43.9375H47.7656Z" fill="#ED4C5C"/>
<path d="M43.9375 2.04688V17.1406L55.2031 8.82812C52.0312 5.875 48.2031 3.57812 43.9375 2.04688ZM22.0625 2.04688C17.7969 3.57812 13.9688 5.875 10.7969 8.82812L22.0625 17.25V2.04688ZM63.9531 22.0625C63.625 20.9688 63.1875 19.9844 62.6406 18.8906L58.375 22.0625H63.9531ZM7.625 22.0625L3.35938 18.8906C2.92188 19.9844 2.48438 20.9688 2.04688 22.0625H7.625Z" fill="#2A5F9E"/>
<path d="M42.2969 26.4375H65.0469C64.7188 24.9062 64.2813 23.4844 63.8438 22.0625H58.2656L62.5312 18.8906C61.6562 17.0312 60.6719 15.3906 59.4688 13.75L48.3125 22.0625H43.9375V19.875L56.7344 10.4687L55.2031 8.9375L43.9375 17.1406V2.04688C42.5156 1.5 41.0938 1.17188 39.5625 0.84375V26.4375H42.2969ZM0.84375 26.4375H26.4375V0.84375C24.9062 1.17188 23.4844 1.60938 22.0625 2.04688V17.1406L10.7969 8.9375C9.26562 10.3594 7.95313 11.8906 6.64062 13.5312L18.3438 22.0625H10.9063L4.23438 17.1406C3.90625 17.6875 3.57813 18.3438 3.35938 18.8906L7.625 22.0625H2.04688C1.60938 23.4844 1.17188 24.9062 0.84375 26.4375Z" fill="white"/>
<path d="M59.5781 13.75C58.7031 12.5469 57.8281 11.4531 56.8438 10.3594L43.9375 19.7656V21.9531H48.3125L59.5781 13.75ZM18.2344 22.0625L6.64063 13.5312C6.20313 14.0781 5.875 14.625 5.4375 15.1719C5.32813 15.2812 5.32812 15.3906 5.21875 15.3906C4.89062 15.9375 4.45312 16.5937 4.125 17.1406L10.7969 22.0625H18.2344Z" fill="#ED4C5C"/>
<path d="M65.1562 26.4375H39.5625V0.84375C37.4844 0.40625 35.2969 0.1875 33 0.1875C30.7031 0.1875 28.5156 0.40625 26.4375 0.84375V26.4375H0.84375C0.40625 28.5156 0.1875 30.7031 0.1875 33C0.1875 35.2969 0.40625 37.4844 0.84375 39.5625H26.4375V65.1562C28.5156 65.5938 30.7031 65.8125 33 65.8125C35.2969 65.8125 37.4844 65.5938 39.5625 65.1562V39.5625H65.1562C65.5938 37.4844 65.8125 35.2969 65.8125 33C65.8125 30.7031 65.5938 28.5156 65.1562 26.4375Z" fill="#ED4C5C"/>
</svg>
